<svg xmlns="http://www.w3.org/2000/svg" viewBox="0 0 12 12"><defs><style>.cls-1{fill:#fff;}</style></defs><g id="Layer_2" data-name="Layer 2"><g id="Layer_1-2" data-name="Layer 1"><path class="cls-1" d="M6,0A6,6,0,0,0,1.55,10a5.67,5.67,0,0,0,.61.59,6,6,0,0,0,7.68,0,5.67,5.67,0,0,0,.61-.59A6,6,0,0,0,6,0ZM6,11.3A5.31,5.31,0,0,1,2.33,9.82a3.86,3.86,0,0,1,7.34,0A5.31,5.31,0,0,1,6,11.3ZM4.25,4.7A1.75,1.75,0,1,1,6,6.45,1.75,1.75,0,0,1,4.25,4.7ZM10.2,9.23A4.61,4.61,0,0,0,7.44,6.68a2.43,2.43,0,0,0,1-2,2.46,2.46,0,1,0-3.9,2A4.61,4.61,0,0,0,1.8,9.23a5.3,5.3,0,1,1,8.4,0Z"/></g></g></svg>