<?xml version="1.0" encoding="utf-8"?>
<!-- Generator: Adobe Illustrator 25.4.1, SVG Export Plug-In . SVG Version: 6.00 Build 0)  -->
<svg version="1.1" id="Layer_1" xmlns="http://www.w3.org/2000/svg" xmlns:xlink="http://www.w3.org/1999/xlink" x="0px" y="0px"
	 viewBox="0 0 22 16" style="enable-background:new 0 0 22 16;" xml:space="preserve">
<style type="text/css">
	.st0{fill:#162C99;}
</style>
<path class="st0" d="M11,16C4.1,16,0.3,8.7,0.1,8.4C0,8.1,0,7.9,0.1,7.6C0.3,7.3,4.1,0,11,0s10.7,7.3,10.9,7.6
	c0.1,0.3,0.1,0.5,0,0.8C21.7,8.7,17.9,16,11,16z M2,8c0.9,1.4,4.1,6.2,9,6.2c4.9,0,8.2-4.8,9-6.2c-0.9-1.4-4.1-6.2-9-6.2
	C6.1,1.8,2.8,6.6,2,8z"/>
<path class="st0" d="M11,11.6C9,11.6,7.3,10,7.3,8S9,4.4,11,4.4c2,0,3.7,1.6,3.7,3.6S13,11.6,11,11.6z M11,6.2C10,6.2,9.2,7,9.2,8
	S10,9.8,11,9.8c1,0,1.8-0.8,1.8-1.8S12,6.2,11,6.2z"/>
</svg>
