<svg width="40" height="40" viewBox="0 0 40 40" fill="none" xmlns="http://www.w3.org/2000/svg">
<path d="M32.8858 0H7.11417C3.18512 0 0 3.18512 0 7.11417V32.8858C0 36.8149 3.18512 40 7.11417 40H32.8858C36.8149 40 40 36.8149 40 32.8858V7.11417C40 3.18512 36.8149 0 32.8858 0Z" fill="#162C99"/>
<path d="M13.1674 27.9767C14.7663 27.9767 16.0625 26.6805 16.0625 25.0816C16.0625 23.4827 14.7663 22.1865 13.1674 22.1865C11.5685 22.1865 10.2723 23.4827 10.2723 25.0816C10.2723 26.6805 11.5685 27.9767 13.1674 27.9767Z" fill="white"/>
<path d="M13.1656 8.04103C13.8254 7.68538 14.5501 7.46625 15.2964 7.3967C16.0967 7.32121 16.9041 7.40398 17.6725 7.64032C18.47 7.88745 19.2219 8.2631 19.8985 8.75245C20.5481 9.22605 21.1405 9.77342 21.6638 10.3836L21.8562 10.6043C21.918 10.6784 21.9763 10.7543 22.0328 10.8285L22.2093 11.0544L22.3858 11.2821C22.4988 11.4339 22.6029 11.5875 22.7071 11.7411C22.8113 11.8947 22.9136 12.0483 23.0107 12.2019C23.2061 12.5114 23.3885 12.8209 23.558 13.1304C23.7345 13.4376 23.8899 13.7483 24.0452 14.0554C24.6151 15.2247 25.1259 16.422 25.5757 17.6425C26.0117 18.7935 26.4054 19.8915 26.8114 20.9083C27.0144 21.415 27.2157 21.9057 27.4328 22.3682C27.65 22.8307 27.8741 23.2756 28.1178 23.701C28.6239 24.5926 29.2761 25.3928 30.0472 26.0683C30.4975 26.4611 30.98 26.8154 31.4895 27.1275C32.0191 27.47 32.6193 27.7807 33.2548 28.1337V28.2573C32.6066 28.5942 31.9116 28.8323 31.1929 28.9634C30.4447 29.1051 29.6795 29.1342 28.9227 29.0499C28.1251 28.9624 27.3443 28.7596 26.6049 28.4479C25.8481 28.1298 25.136 27.7144 24.4865 27.2122C23.8546 26.7224 23.2744 26.1693 22.7548 25.5617C22.2612 24.9831 21.8126 24.3676 21.4131 23.7205C20.6845 22.5226 20.0688 21.2597 19.5737 19.948C18.6081 17.4766 18.0502 15.104 17.3547 13.1322C17.1782 12.6397 17.0016 12.1683 16.7845 11.7199C16.5721 11.2677 16.3161 10.8373 16.0201 10.4348C15.6839 9.98636 15.289 9.58501 14.8462 9.24144C14.3147 8.83814 13.7522 8.47749 13.1639 8.16284L13.1656 8.04103Z" fill="white"/>
</svg>
