<?xml version="1.0" encoding="utf-8"?>
<!-- Generator: Adobe Illustrator 25.4.1, SVG Export Plug-In . SVG Version: 6.00 Build 0)  -->
<svg version="1.1" id="Layer_1" xmlns="http://www.w3.org/2000/svg" xmlns:xlink="http://www.w3.org/1999/xlink" x="0px" y="0px"
	 viewBox="0 0 27 30" style="enable-background:new 0 0 27 30;" xml:space="preserve">
<style type="text/css">
	.st0{fill:#CE4D4D;}
</style>
<g>
	<path class="st0" d="M25.7,5.5H23h-2.7V4.1c0-1.1-0.4-2.1-1.2-2.9C18.3,0.4,17.3,0,16.2,0h-5.4C9.7,0,8.7,0.4,7.9,1.2
		C7.2,2,6.8,3,6.8,4.1v1.4H4H1.3C0.6,5.5,0,6.1,0,6.8s0.6,1.4,1.3,1.4h1.4v17.7c0,1.1,0.4,2.1,1.2,2.9C4.7,29.6,5.7,30,6.8,30h13.5
		c1.1,0,2.1-0.4,2.9-1.2c0.8-0.8,1.2-1.8,1.2-2.9V8.2h1.4c0.7,0,1.3-0.6,1.3-1.4S26.4,5.5,25.7,5.5z M9.5,4.1c0-0.4,0.1-0.7,0.4-1
		c0.3-0.3,0.6-0.4,1-0.4h5.4c0.4,0,0.7,0.1,1,0.4c0.3,0.3,0.4,0.6,0.4,1v1.4H9.5V4.1z M21.6,25.9c0,0.4-0.1,0.7-0.4,1
		c-0.3,0.3-0.6,0.4-1,0.4H6.8c-0.4,0-0.7-0.1-1-0.4c-0.3-0.3-0.4-0.6-0.4-1V8.2h16.2V25.9z"/>
	<path class="st0" d="M10.8,23.2c0.7,0,1.4-0.6,1.4-1.4v-8.2c0-0.8-0.6-1.4-1.4-1.4s-1.3,0.6-1.3,1.4v8.2
		C9.5,22.6,10.1,23.2,10.8,23.2z"/>
	<path class="st0" d="M16.2,23.2c0.7,0,1.3-0.6,1.3-1.4v-8.2c0-0.8-0.6-1.4-1.3-1.4c-0.7,0-1.4,0.6-1.4,1.4v8.2
		C14.8,22.6,15.5,23.2,16.2,23.2z"/>
</g>
</svg>
